<svg xmlns="http://www.w3.org/2000/svg" class="w-5 h-5" width="24" height="24pt" viewBox="0 0 24 24" fill="currentColor">
<path d="M 21.75 3 C 22.710938 3.007812 23.558594 3.621094 23.867188 4.53125 C 24.171875 5.441406 23.871094 6.445312 23.109375 7.03125 L 12.890625 14.71875 C 12.375 15.09375 11.625 15.09375 11.109375 14.71875 L 0.890625 7.03125 C 0.128906 6.445312 -0.171875 5.441406 0.132812 4.53125 C 0.441406 3.621094 1.289062 3.007812 2.25 3 Z M 10.21875 15.890625 C 11.25 16.6875 12.75 16.6875 13.78125 15.890625 L 24 8.25 L 24 18 C 24 19.640625 22.640625 21 21 21 L 3 21 C 1.359375 21 0 19.640625 0 18 L 0 8.25 Z M 10.21875 15.890625 "/>
</svg>
