<svg xmlns="http://www.w3.org/2000/svg" class="w-5 h-5" width="24" height="24pt" viewBox="0 0 24 24" fill="currentColor">
<path d="M 6.375 8.578125 L 6.375 21.84375 L 1.96875 21.84375 L 1.96875 8.578125 Z M 6.65625 4.453125 C 6.703125 5.71875 5.71875 6.75 4.171875 6.75 C 2.671875 6.75 1.734375 5.71875 1.734375 4.453125 C 1.734375 3.140625 2.71875 2.15625 4.21875 2.15625 C 5.71875 2.15625 6.65625 3.140625 6.65625 4.453125 Z M 22.265625 14.203125 L 22.265625 21.84375 L 17.859375 21.84375 L 17.859375 14.71875 C 17.859375 12.9375 17.25 11.71875 15.65625 11.71875 C 14.4375 11.71875 13.6875 12.5625 13.359375 13.359375 C 13.265625 13.640625 13.21875 14.015625 13.21875 14.4375 L 13.21875 21.84375 L 8.8125 21.84375 L 8.8125 8.578125 L 13.21875 8.578125 L 13.21875 10.5 C 13.78125 9.5625 14.8125 8.25 17.203125 8.25 C 20.109375 8.25 22.265625 10.171875 22.265625 14.203125 Z M 22.265625 14.203125 "/>
</svg>
