<svg xmlns="http://www.w3.org/2000/svg" class="w-5 h-5" width="24" height="24pt" viewBox="0 0 24 24" fill="currentColor">
<path d="M 12.5625 0.28125 C 7.734375 0.28125 3 3.515625 3 8.71875 C 3 12 4.875 13.875 6 13.875 C 6.421875 13.875 6.703125 12.5625 6.703125 12.234375 C 6.703125 11.765625 5.578125 10.828125 5.578125 9.046875 C 5.578125 5.25 8.484375 2.578125 12.1875 2.578125 C 15.375 2.578125 17.71875 4.40625 17.71875 7.734375 C 17.71875 10.21875 16.734375 14.90625 13.5 14.90625 C 12.328125 14.90625 11.34375 14.0625 11.34375 12.84375 C 11.34375 11.0625 12.5625 9.375 12.5625 7.546875 C 12.5625 4.40625 8.15625 4.96875 8.15625 8.71875 C 8.15625 9.515625 8.25 10.40625 8.625 11.109375 C 7.96875 13.921875 6.65625 18.046875 6.65625 20.90625 C 6.65625 21.796875 6.796875 22.6875 6.84375 23.578125 C 7.03125 23.71875 6.9375 23.71875 7.171875 23.625 C 9.5625 20.390625 9.46875 19.78125 10.546875 15.515625 C 11.109375 16.640625 12.609375 17.203125 13.78125 17.203125 C 18.75 17.203125 21 12.375 21 8.015625 C 21 3.328125 16.96875 0.28125 12.5625 0.28125 Z M 12.5625 0.28125 "/>
</svg>
