<svg aria-hidden="true" fill="currentColor" xmlns="http://www.w3.org/2000/svg" viewBox="0 0 512 512" class="w-5 h-5">
  <title>Pinterest</title>
  <path d="M268 6C165 6 64 75 64 186c0 70 40 110 64 110 9 0 15-28 15-35 0-10-24-30-24-68 0-81 62-138 141-138 68 0 118 39 118 110 0 53-21 153-90 153-25 0-46-18-46-44 0-38 26-74 26-113 0-67-94-55-94 25 0 17 2 36 10 51-14 60-42 148-42 209 0 19 3 38 4 57 4 3 2 3 7 1 51-69 49-82 72-173 12 24 44 36 69 36 106 0 154-103 154-196C448 71 362 6 268 6z">
  </path>
</svg>
