<svg xmlns="http://www.w3.org/2000/svg" class="w-5 h-5" viewBox="0 0 512 512" fill="currentColor" >
  <path d="M440 204c-15 0-28 6-38 15-35-24-83-40-137-42l28-125 88 20c0 22 18 39 39 39 22 0 40-18 40-39s-17-40-40-40c-15 0-28 9-35 22l-97-22c-5-1-10 3-11 7l-31 138c-53 2-100 18-136 43a53 53 0 0 0-38-16c-56 0-74 74-23 100l-3 24c0 84 95 152 210 152 117 0 211-68 211-152 0-8-1-17-3-25 50-25 32-99-24-99zM129 309a40 40 0 1 1 80 0 40 40 0 0 1-80 0zm215 93c-37 37-139 37-176 0-4-3-4-9 0-13s10-4 13 0c28 28 120 29 149 0 4-4 10-4 14 0s4 10 0 13zm-1-54c-22 0-39-17-39-39a39 39 0 1 1 39 39z">
  </path>
</svg>
