<svg xmlns="http://www.w3.org/2000/svg" class="w-5 h-5" width="24" height="24pt" viewBox="0 0 24 24" fill="currentColor">
<path d="M 12 0.375 C 5.578125 0.375 0.375 5.578125 0.375 12 C 0.375 18.421875 5.578125 23.625 12 23.625 C 18.421875 23.625 23.625 18.421875 23.625 12 C 23.625 5.578125 18.421875 0.375 12 0.375 Z M 17.390625 8.296875 C 17.203125 10.125 16.453125 14.578125 16.078125 16.640625 C 15.890625 17.53125 15.609375 17.8125 15.28125 17.8125 C 14.625 17.90625 14.109375 17.390625 13.453125 16.96875 L 10.828125 15.234375 C 9.703125 14.4375 10.453125 14.0625 11.109375 13.359375 C 11.25 13.171875 14.25 10.5 14.296875 10.21875 L 14.25 10.03125 L 14.015625 9.984375 C 13.890625 10.015625 12.25 11.109375 9.09375 13.265625 C 8.625 13.578125 8.203125 13.71875 7.828125 13.6875 C 7.40625 13.6875 6.609375 13.453125 6.046875 13.265625 C 5.296875 13.03125 4.734375 12.9375 4.78125 12.515625 C 4.8125 12.296875 5.09375 12.078125 5.625 11.859375 L 12.421875 8.953125 C 15.65625 7.59375 16.3125 7.359375 16.734375 7.359375 C 16.828125 7.359375 17.0625 7.40625 17.203125 7.5 L 17.390625 7.828125 C 17.410156 7.984375 17.410156 8.140625 17.390625 8.296875 Z M 17.390625 8.296875 "/>
</svg>
