<svg xmlns="http://www.w3.org/2000/svg" class="w-5 h-5" width="24" height="24pt" viewBox="0 0 24 24" fill="currentColor">
<path d="M 21.515625 7.125 L 21.5625 7.734375 C 21.5625 14.25 16.59375 21.75 7.546875 21.75 C 4.78125 21.75 2.15625 20.953125 0 19.546875 C 2.613281 19.828125 5.234375 19.089844 7.3125 17.484375 C 5.109375 17.4375 3.328125 16.03125 2.71875 14.109375 L 3.609375 14.15625 C 4.078125 14.15625 4.5 14.109375 4.921875 14.015625 C 2.671875 13.546875 0.984375 11.578125 0.984375 9.1875 L 0.984375 9.09375 C 1.640625 9.46875 2.390625 9.703125 3.1875 9.75 C 1.007812 8.296875 0.347656 5.390625 1.6875 3.140625 C 4.078125 6.140625 7.734375 8.109375 11.8125 8.296875 C 11.71875 7.921875 11.71875 7.546875 11.71875 7.171875 C 11.726562 5.164062 12.957031 3.363281 14.820312 2.621094 C 16.6875 1.878906 18.816406 2.34375 20.203125 3.796875 C 21.328125 3.609375 22.40625 3.1875 23.34375 2.625 C 22.96875 3.75 22.171875 4.734375 21.1875 5.34375 C 22.171875 5.203125 23.109375 4.96875 24 4.546875 C 23.34375 5.53125 22.5 6.421875 21.515625 7.125 Z M 21.515625 7.125 "/>
</svg>
