<svg aria-hidden="true" fill="currentColor" xmlns="http://www.w3.org/2000/svg" viewBox="0 0 512 512" class="w-5 h-5">
  <title>Whatsapp</title>
  <path d="M413 97A222 222 0 0 0 64 365L31 480l118-31a224 224 0 0 0 330-195c0-59-25-115-67-157zM256 439c-33 0-66-9-94-26l-7-4-70 18 19-68-4-7a185 185 0 0 1 287-229c34 36 56 82 55 131 1 102-84 185-186 185zm101-138c-5-3-33-17-38-18-5-2-9-3-12 2l-18 22c-3 4-6 4-12 2-32-17-54-30-75-66-6-10 5-10 16-31 2-4 1-7-1-10l-17-41c-4-10-9-9-12-9h-11c-4 0-9 1-15 7-5 5-19 19-19 46s20 54 23 57c2 4 39 60 94 84 36 15 49 17 67 14 11-2 33-14 37-27s5-24 4-26c-2-2-5-4-11-6z">
  </path>
</svg>
