<svg xmlns="http://www.w3.org/2000/svg" class="w-5 h-5" width="24" height="24pt" viewBox="0 0 24 24" fill="currentColor">
<path d="M 19.359375 4.546875 C 15.664062 0.875 9.820312 0.503906 5.6875 3.675781 C 1.554688 6.847656 0.40625 12.589844 3 17.109375 L 1.453125 22.5 L 6.984375 21.046875 C 10.222656 22.785156 14.132812 22.707031 17.296875 20.835938 C 20.457031 18.96875 22.414062 15.582031 22.453125 11.90625 C 22.453125 9.140625 21.28125 6.515625 19.3125 4.546875 Z M 12 20.578125 C 10.453125 20.578125 8.90625 20.15625 7.59375 19.359375 L 7.265625 19.171875 L 3.984375 20.015625 L 4.875 16.828125 L 4.6875 16.5 C 2.402344 12.769531 3.253906 7.921875 6.671875 5.191406 C 10.09375 2.464844 15.011719 2.710938 18.140625 5.765625 C 19.734375 7.453125 20.765625 9.609375 20.71875 11.90625 C 20.765625 16.6875 16.78125 20.578125 12 20.578125 Z M 16.734375 14.109375 C 16.5 13.96875 15.1875 13.3125 14.953125 13.265625 C 14.71875 13.171875 14.53125 13.125 14.390625 13.359375 L 13.546875 14.390625 C 13.40625 14.578125 13.265625 14.578125 12.984375 14.484375 C 11.484375 13.6875 10.453125 13.078125 9.46875 11.390625 C 9.1875 10.921875 9.703125 10.921875 10.21875 9.9375 C 10.3125 9.75 10.265625 9.609375 10.171875 9.46875 L 9.375 7.546875 C 9.1875 7.078125 8.953125 7.125 8.8125 7.125 L 8.296875 7.125 C 8.109375 7.125 7.875 7.171875 7.59375 7.453125 C 7.359375 7.6875 6.703125 8.34375 6.703125 9.609375 C 6.703125 10.875 7.640625 12.140625 7.78125 12.28125 C 7.875 12.46875 9.609375 15.09375 12.1875 16.21875 C 13.875 16.921875 14.484375 17.015625 15.328125 16.875 C 15.84375 16.78125 16.875 16.21875 17.0625 15.609375 C 17.25 15 17.296875 14.484375 17.25 14.390625 C 17.15625 14.296875 17.015625 14.203125 16.734375 14.109375 Z M 16.734375 14.109375 "/>
</svg>
